<?xml version="1.0" encoding="utf-8"?>
<!-- Generator: Adobe Illustrator 19.2.0, SVG Export Plug-In . SVG Version: 6.00 Build 0)  -->
<svg version="1.1" id="Layer_1" xmlns="http://www.w3.org/2000/svg" xmlns:xlink="http://www.w3.org/1999/xlink" x="0px" y="0px"
	 viewBox="0 0 1024 768" style="enable-background:new 0 0 1024 768;" xml:space="preserve">
<g>
	<g>
		<path d="M579.4,521.6c20.7-1,41.1-2.2,61.5-3c10-0.4,20,0.3,29.9-0.3c16.1-1,32.1-2.7,48.2-4c12.4-1,25-1.4,37.3-2.9
			c15.4-1.9,30.8-4.9,46.2-6.9c11.2-1.5,22.5-2.1,33.6-3.6c13.2-1.7,26.2-4.6,39.5-5.6c19.2-1.4,38.6-1.7,57.9-2.3
			c8.3-0.3,16.7-0.9,25-0.4c10.4,0.6,20.8,2.4,31.2,3.3c6.9,0.6,13.9,0.8,20.8,0.4c13.9-0.8,27.8,9.6,30.5,23.1
			c0.9,4.5,3,8.7,4.5,13.1c1.2,3.4,2.3,6.9,3.6,10.2c2.5,6.5,5.1,12.9,7.7,19.3c2.2,5.5,4.2,11.1,6.4,16.5c2.5,6.1,5.6,12,7.7,18.3
			c2.6,7.5,5.2,15.2,6.4,23c2.4,16.3,3.9,32.7,5.8,49c1.1,9.4,2.8,18.8,3.2,28.2c0.6,12.7,0.4,25.5,0.4,38.3c0,10.8,0,21.6-0.4,32.4
			c-0.1,3.2-1.4,6.4-2,9.7c-0.9,4.4-2.2,8.7-2.5,13.2c-0.8,10.1-1.1,20.3-1.7,30.4c-0.5,9.9-0.4,19.9-1.9,29.6
			c-1.1,6.7-4.8,13-6.8,19.6c-3.7,12.2-7.7,24.4-10.5,36.9c-4.1,18.1-7.1,36.4-10.7,54.6c-1.9,9.8-3.5,19.6-6,29.2
			c-1,4.1-3.5,7.9-5.9,11.5c-9.2,13.6-15.3,28.7-21.3,43.8c-2.9,7.2-6.3,14.2-9.9,21.1c-15.2,29.2-35.4,54.7-59.6,76.9
			c-9,8.3-19.3,15.2-28.9,22.9c-6.1,4.9-12.1,9.9-17.8,15.3c-13.7,12.9-29.1,22.8-46.9,29.2c-11.7,4.2-23.1,9-34.8,13.1
			c-3.3,1.2-7.3,0.3-10.7,1.1c-6.6,1.7-13,4.2-19.6,5.9c-15.6,4-31.1,8.6-46.9,11.4c-22.3,4-44.7,6.9-67.2,9.6
			c-16.6,2.1-33.4,2.9-50,4.9c-10.7,1.2-21.3,3.8-31.9,5.2c-15.8,2.1-31.6,4.9-47.5,5.5c-22.8,0.9-45.6,0.5-68.4-0.1
			c-21-0.5-41.5-5.2-62.1-9.3c-8.8-1.8-17.9-1.8-26.7-3.5c-11-2.1-21.9-5-32.8-7.8c-5.9-1.5-11.8-3.5-17.5-5.6
			c-7.8-2.7-15.5-5.8-23.2-8.6c-5.5-2.1-11.1-3.9-16.6-6.1c-13-5.3-26.1-10.4-38.7-16.4c-19.1-9.1-37.9-18.9-56.8-28.6
			c-5.7-3-11.2-6.5-16.7-10c-16.3-10.4-32.4-20.9-48.8-31.2c-14.7-9.1-26.3-21.8-38.6-33.5c-7.5-7.2-15.3-14.5-21-23
			c-12.1-18.2-24-36.7-34-56.2c-8.3-16.1-13.9-33.7-20.5-50.7c-3.5-8.9-7.3-17.8-9.8-27.1c-4.6-16.6-8.3-33.5-12.7-50.1
			c-4.3-16-9.6-31.7-13.6-47.7c-3.2-12.6-5.9-25.3-7.8-38.1c-3.7-25.6-6.3-51.4-10.2-77.1c-3.1-20.5-7.9-40.8-11-61.3
			c-2.6-17.1-4.1-34.3-5.6-51.5c-1.1-12.8-1.1-25.6-2-38.4c-0.4-6.1-1.9-12.1-2.9-18.1c-0.4-2.5-0.8-4.9-1-7.4
			c-0.8-14.4-1.4-28.7-2.3-43.1c-0.5-8.3-2.1-16.5-2.4-24.8c-0.4-12.4,0.3-24.9-0.2-37.4c-0.6-15.5-1.8-30.9-2.7-46.3
			c-0.7-12.1-1.1-24.3-2.4-36.3c-1.8-16.5-4.5-33-6.7-49.4c-1.6-12-2.5-24.2-4.7-36.1c-5.5-29.5-8.1-59.3-8.9-89.3
			c-0.6-20.6-1-41.3-2.4-61.9c-0.8-11.6-3.9-22.9-5.3-34.5c-2.7-21-2.7-42.1-0.2-63.2c1.1-9.4,0.6-19,1.1-28.4
			c0.7-11.4,1.1-22.9,2.6-34.3c2.9-21.4,6.6-42.7,10-64c1.8-10.8,3.3-21.7,5.9-32.3c1.9-7.8,4.5-15.7,8.1-22.9
			c8.4-16.5,14.7-33.7,19.8-51.5c4.3-14.9,12.4-28.2,20.1-41.6C-8.2-263.7,14-285.8,35.9-308c14.7-14.9,30-29.2,45.2-43.5
			c3.7-3.5,8.5-5.7,12.8-8.6c7.9-5.3,16.1-10,23.4-16c12-9.7,25.7-16,39.6-21.9c12.3-5.3,25.1-9.5,37.9-13.8
			c13.7-4.6,27.4-9.3,41.4-12.8c18.2-4.6,36.5-8.8,55.1-11.6c22.8-3.4,45.8-5.5,68.8-7.5c10.1-0.9,20.3-0.5,30.4-0.6
			c14.1-0.1,28.3-0.5,42.4,0.1c18.4,0.7,36.8,2.2,55.2,3.5c12.3,0.8,24.6,1.8,36.8,2.8c29.5,2.4,59,4.5,88,11.5
			c17.6,4.2,35.5,6.9,53.2,11c18.9,4.3,37.7,9.1,56.4,14.2c11.3,3.1,22.3,7.3,33.4,10.8c7.4,2.3,15,4.2,22.4,6.6
			c5.8,1.9,11.4,4.3,17.1,6.6c13.6,5.6,27.5,10.8,40.7,17.2c11.1,5.4,22,11.5,32.2,18.6c15,10.4,29.8,21,43.6,33
			c14.5,12.7,28.1,26.5,41.3,40.6c11.6,12.5,22.6,25.7,33,39.2c9,11.7,17.9,23.6,25.1,36.4c8.1,14.4,15,29.6,18.9,46
			c4.2,17.5,9.5,34.8,13.3,52.4c2.9,13.2,4.2,26.8,6.4,40.2c1.8,10.9,3.8,21.8,5.5,32.8c1.3,8.3,2.1,16.6,3.1,25
			c0.2,1.8,0.8,3.6,0.9,5.4c1,11.2,2,22.3,2.7,33.5c0.8,12.4,1.3,24.9,1.7,37.3c0.1,3-0.8,5.9-0.8,8.9c0,6,0.5,12.1,0.3,18.1
			c-0.3,14.1,0,28.3-1.7,42.2c-1.3,10.6-6.2,20.7-7.8,31.4c-2.1,13.4-8.5,25.2-11.4,38c-3,12.6-10.8,22.1-16.4,33
			c-7.1,14.2-17.7,25.7-27.4,37.9c-6.1,7.8-15.2,11.1-24.6,13.1c-7.4,1.6-15,2.2-22.5,3.5c-4.9,0.9-9.7,2.6-14.6,3.2
			c-9.2,1.2-18.5,2.4-27.7,2.9c-8.6,0.4-17.3,0.2-25.9-0.4c-7.6-0.5-15.1-2-22.6-3.1c-1.6-0.2-3.3-0.9-4.9-0.9
			c-17.7,0.4-34.5-4.7-51.6-8c-12.6-2.5-25.4-5.2-37.5-9.5c-12.7-4.6-24.9-10.4-35.9-19c-10-7.8-19.3-16.2-26.2-26.6
			c-6.3-9.5-10.7-20.4-16.3-30.4c-9.8-17.3-14.1-36.3-18.1-55.5c-3.6-17.4-7.1-34.8-11.3-52c-2.1-8.5-6-16.4-8.4-24.8
			c-2.2-7.7-3.3-15.8-5.5-23.6c-2.8-10-4.5-20.4-11.1-28.9c-3.1-4-6.3-7.8-9.5-11.6c-2.5-3-5.1-6-7.9-8.7c-8-7.8-18.3-12.2-28.4-16
			c-15.1-5.6-30.4-11-46.1-14c-19.8-3.8-39.9-8.2-60.4-4.6c-2.4,0.4-5,0.1-7.4-0.1c-4.8-0.4-9.4-1.1-13.7,2.5
			c-2.5,2.1-8.7-1.7-11-5.9c-2.9-5.3-6-10.6-9.4-15.6c-0.9-1.3-3.4-1.9-5.3-2.1c-12-1.8-23.4,1.3-34.9,3.8
			c-11.6,2.5-23.5,4.2-35,7.2c-22.7,5.8-46,10.4-65.7,24.5c-16.6,11.9-34,23-49.8,36c-16.8,13.9-31.4,30.1-43.6,48.3
			c-6.7,10-14.4,19.5-20.5,29.9c-12.6,21.6-22.3,44.3-28,68.9c-4.1,17.3-5.8,34.7-7.4,52.2c-0.8,8.6-1.3,17.2-1.9,25.8
			c-1,13.6-2.8,27.1-2.7,40.7c0.2,23.4-1.8,46.8,0.4,70.3c2.2,23.9,2.2,48.1,4.1,72.1c1,12.5,4.2,24.8,5.9,37.3
			c1.3,9.3,1.8,18.8,2.7,28.1c0.3,3,1,5.9,1.1,8.8c0.3,9.7,0.4,19.5,0.5,29.2c0.2,16.1,0.1,32.2,0.4,48.3
			c0.3,16.8,1.6,33.5,1.2,50.3c-0.3,14.2-2.7,28.4-3.5,42.7c-0.4,7.3-1.1,14.6,0.8,22.1c1.2,4.5-0.4,9.6,0,14.3
			c1.7,17,3.6,34,5.8,51c1,7.8,2.7,15.7,5,23.2c2.8,9.1,6.3,18,9.9,26.8c4.7,11.3,9.3,22.6,14.9,33.5c3.7,7.3,8.4,14.3,13.5,20.7
			c19.2,24.3,43.7,42.4,70.4,57.4c19.1,10.7,39.5,18.6,61.7,20.6c14,1.3,28,2.9,42,4.9c16.7,2.4,33.3,5.4,50,8.2
			c35.2,5.9,70.3,12.3,105.6,17.6c23.6,3.6,47.5,5.6,71.3,8.3c4.6,0.5,9.3,2,13.8,1.6c9.5-0.8,19.1-1.9,28.4-4.1
			c13.7-3.2,27.3-7.2,40.7-11.5c5.3-1.7,10.8-4.1,15.2-7.4c8.9-6.6,18.3-13.1,25.6-21.3c9-10.3,15.3-22.7,19.6-35.9
			c0.4-1.1,0.5-2.3,1-3.3c4.3-8.1,5.3-16.9,6.4-25.9c0.8-6.7,3.7-13.1,4.5-19.8c1.4-11.4,2-22.8,2.9-34.3c0.1-1.4-0.4-2.9-0.6-4.4
			c-0.9-7.5-7-8.3-12.6-9.5c-26.8-6.2-53.9-8.5-81.2-3.7c-11.7,2-23.3,5.4-34.8,8.5c-21.8,5.9-44.1,7.1-66.4,4.9
			c-14.6-1.5-29.1-4.9-42.6-11.3c-1.9-0.9-3.3-2.7-4.9-4.1c-9.4-8.3-19.1-16.3-27.9-25.2c-5.4-5.5-10-12-13.8-18.7
			c-6.2-10.8-11.9-21.9-17-33.3c-5.4-12.1-8.5-25-9.7-38.3c-2.1-22.2-1.4-44.3,2.5-66.1c2-11.2,6-22,9-33
			c3.4-12.6,6.5-25.3,10.1-37.8c0.8-2.8,2.8-5.9,5.1-7.4c10.9-6.9,22.5-12.5,35.4-15.1c14.5-2.9,28.9-6,43.5-8.3
			C567.2,520.8,573.5,521.6,579.4,521.6z M109.1,255.5c1.5-29.3,2.8-60.4,4.9-91.5c1.2-17.4,4.5-34.6,10.7-51
			c4.3-11.3,8-22.8,14.8-33c4.4-6.6,7.7-14,12.1-20.6c7.2-10.8,14.5-21.6,22.5-31.7c8.6-10.8,17.5-21.5,27.4-31
			c18.7-18.1,40-33,62.1-46.7c6.8-4.2,13.1-9.4,20.3-12.4c11.3-4.7,23.1-8.6,35-11.5c21.9-5.3,44-9.9,66.1-14.4
			c22.4-4.6,44.4-1.8,65.7,5.4c10.1,3.4,19.4,9.1,29.6,12.3c8.3,2.6,17.2,3.7,25.9,4c13.4,0.5,26.3,3.6,39,7.1
			c12.5,3.4,24.6,8.5,36.9,12.8c17,5.9,30.9,15.4,41.9,30.3c9.9,13.2,18.5,26.8,25.6,41.7C657.3,41.3,663,58,668.1,75
			c3.4,11.4,5.5,23.1,8.5,34.7c3.3,13.1,9.9,25.1,11.6,38.9c1.6,13.7,5.7,27.2,8.5,40.8c3,14.8,9.6,27.5,21,37.4
			c7,6.1,15,11.1,21.5,17.7c10.6,10.9,24.4,15.4,38,19.7c12.3,3.8,25.2,5.8,37.9,8.1c12.9,2.3,26,3.5,38.8,6.1
			c13.7,2.8,27.3,3.8,41.1,2.7c11.4-0.9,22.8-2.1,34.1-3.7c7.2-1.1,14.2-3.3,21.3-4.8c12.4-2.6,23.5-7.3,31.3-17.8
			c5.9-8,11.8-16,17-24.4c5.1-8.3,10.3-16.8,13.5-26c5.8-16.7,13.8-32.7,16.7-50.4c2.1-12.9,6.1-25.6,7.3-38.5
			c1.6-16.6,1.5-33.4,1.8-50.2c0.2-10.3,0.1-20.6-0.3-30.9c-0.3-6.3-2.4-12.5-2.1-18.7c0.9-20.6-2.7-40.6-6-60.7
			c-3-18.2-4.9-36.5-8.3-54.6c-3.5-19-7.9-37.9-12.7-56.7c-1.9-7.7-5.7-14.9-9-22.2c-1.6-3.5-3.9-6.8-6-10.1
			c-0.8-1.2-2.1-2.2-2.9-3.4c-7.8-11.3-15.2-23-23.5-34c-4.8-6.4-11.1-11.6-16.6-17.5c-4-4.3-7.6-9.2-11.8-13.4
			c-6.9-6.8-14.3-13.3-21.3-19.9c-15.2-14.3-31.4-27.3-48.5-39.3c-16.7-11.6-35.2-19.4-53.2-28.3c-10.1-5-20.8-8.9-31.4-12.8
			c-16.5-6.1-33.1-12.1-49.9-17.4c-14.1-4.4-28.4-8-42.8-11.5c-13.4-3.3-27-6.1-40.6-9c-14.2-3-28.4-6.4-42.8-8.8
			c-19.8-3.2-39.6-6.3-59.5-8.3c-15.3-1.5-30.8-0.9-46.1-1.7c-19.9-1-39.7-3-59.6-3.5c-36-0.9-71.9-0.5-107.7,4.6
			c-18.3,2.6-36.8,4.5-54.9,8.4c-17.3,3.7-34.1,9.3-51.1,14.5c-18.8,5.7-38.2,9.8-55.6,19.4c-7.5,4.1-15.3,7.9-22.4,12.6
			c-7.9,5.2-14.9,11.7-22.8,16.7c-19.7,12.6-37.6,27.4-53.8,44.1c-16.2,16.8-31.8,34.3-46.8,52.1c-13.2,15.6-24.4,32.7-32.9,51.2
			c-4.1,9-6.2,18.8-9.7,28.1c-4.6,12.3-9.6,24.4-14.4,36.6c-2.7,6.9-6.2,13.7-8,20.9c-4,15.4-7.8,30.8-10.6,46.5
			c-3.5,19.6-6.3,39.4-8.6,59.2c-1.4,12-1,24.2-1.7,36.4c-0.9,15.4-2.4,30.9-2.8,46.3c-0.3,9.1,0.7,18.2,1.7,27.3
			c1,9.5,2.6,19,3.7,28.5c1.2,10.2,2.7,20.5,3,30.8c0.8,27.4,1,54.9,1.6,82.4c0.1,5.3,0.6,10.6,1.3,15.9c1.7,12.2,3.8,24.3,5.3,36.5
			c1.5,11.9,2.1,23.8,3.6,35.7c1.9,15.5,5,30.9,6.3,46.4c2.3,29,3.7,58.1,5.5,87.2c1.8,29.6,3.7,59.3,5.6,88.9
			c0.7,10.1,1.8,20.2,2.5,30.3c1.3,18.9,3.1,37.8,3.3,56.8c0.4,26.2,8.4,51,11.9,76.7c2.6,18.9,5.7,37.8,8.5,56.7
			c2.8,19.3,4.8,38.8,8.2,58c2.9,16.1,7,32,11.1,47.8c3.8,14.7,9.3,29.1,12.4,44c4.4,21.7,10.9,42.6,18.7,63.2
			c6.3,16.3,12.5,32.7,20,48.5c5.4,11.4,12.4,22.2,19.4,32.8c5.6,8.4,12.3,16.1,18.8,23.7c3.5,4.1,7.7,7.7,11.9,11.2
			c8.8,7.3,17.4,14.9,26.8,21.4c12,8.3,24.6,15.7,37,23.3c7.9,4.8,15.8,9.7,24,13.9c13.5,7,27.3,13.6,41,20.3
			c10.3,5,20.3,10.7,31,14.8c18.1,7,36.6,12.9,54.8,19.4c13.1,4.7,26.2,9.3,40.1,10.8c9.9,1.1,19.8,1.8,29.7,2.9
			c11.1,1.3,22.2,3.6,33.3,4.5c15.5,1.3,31.1,1.9,46.6,2.3c19.5,0.6,38.9,0,58.2-2.9c15.1-2.2,30.2-4.4,45.2-6.7
			c11-1.7,21.9-3.6,32.8-5.1c15.6-2.1,31.3-3.7,46.9-5.8c11.5-1.6,23-3.1,34.4-5.5c17.5-3.6,35-7.2,52.2-11.9
			c14.8-4.1,29.2-9.8,43.8-14.6c16.4-5.4,32.2-12.3,46.6-21.8c11-7.3,21.1-16,31.4-24.3c7.5-6,14.9-12.3,22.1-18.7
			c10.4-9.3,21.3-18.1,30.5-28.5c10.8-12.1,20.2-25.5,29.6-38.7c5.1-7.1,9.7-14.7,13.3-22.5c4.8-10.5,8.3-21.6,12.7-32.3
			c6.7-16,15.9-30.9,20-48c2.2-9.3,4.9-18.4,7.1-27.7c1-4.3,1.3-8.9,2.3-13.2c2.9-12.6,6-25.1,9-37.7c2.6-10.8,3.9-22.1,8.2-32.2
			c8.2-19.5,10.9-39.7,12.2-60.4c0.8-12.9,1.9-25.8,2.9-38.6c0.8-10.1,2.1-20.1,2.8-30.2c0.5-7.3,0.8-14.6,0.8-21.9
			c0.1-8.6,0.3-17.3-0.4-25.9c-1-12.7-2.7-25.4-4.4-38.1c-1.8-13.7-3.7-27.3-5.9-40.9c-0.5-3.2-2.9-6.1-4.1-9.3
			c-2.3-6.6-4.2-13.3-6.4-19.8c-3.1-9.2-6.7-18.3-9.6-27.5c-1.7-5.4-6.1-10.3-11.9-10.5c-14.7-0.7-29.4-1.2-44.1-1.4
			c-12.3-0.2-24.6,0.1-37,0.4c-11.6,0.3-23.3,0.4-34.8,1.5c-14.8,1.4-29.6,3.7-44.4,5.8c-15.1,2.1-30.1,4.4-45.2,6.3
			c-15,2-30,3.9-45.1,5.5c-11.4,1.2-22.9,1.8-34.3,2.7c-13.8,1.1-27.5,2.4-41.3,3.2c-13.3,0.8-26.6,1.2-39.9,1.7
			c-18.1,0.7-36.2,1.2-54.4,1.8c-4.5,0.2-9.1-0.3-13.4,0.7c-17.3,3.8-34.7,7.6-51.8,12.1c-11.2,3-19.4,9.8-22.3,21.8
			c-2.7,10.9-5.5,21.8-9.1,32.5c-7.4,22.1-11.6,44.7-11.4,68c0.1,10.1,1.7,20.1,2.6,30.2c1.1,12,6.9,22.2,12.2,32.6
			c2.7,5.3,7.3,9.7,9.8,15.1c5,11,14.9,16.9,24.4,21.7c10.9,5.5,23.7,7,36.3,7.3c23.1,0.6,45.1-5.3,67.3-10.2
			c24-5.3,48.2-7.5,72.7-5.3c15,1.3,29.9,3.2,44.9,4.7c12,1.2,22.9,5,32.2,12.8c0.9,0.7,1.6,1.6,2.2,2.6
			c6.6,10.7,9.7,22.6,11.4,34.9c0.6,4.1,1.2,8.2,1.1,12.3c0,3.6-1.4,7.2-1.5,10.8c-0.1,16.8-1.8,33.5-6.6,49.6
			c-3.9,13.2-4,27.6-12.3,39.5c-0.1,0.1-0.1,0.3-0.1,0.5c-3,8.1-5.7,15.9-13.5,21.4c-9.6,6.8-18.1,15.1-27.4,22.3
			c-5.1,3.9-10.8,7.4-16.7,10.1c-4.2,1.9-9.2,2.3-13.9,3.2c-11.7,2.2-23.5,4.4-35.2,6.6c-1.9,0.4-3.7,1.3-5.6,1.8
			c-6,1.4-12.1,4.3-17.9,3.9c-14.7-1.1-29.3-3.9-43.9-5.5c-13-1.4-26.2-1.8-39.2-3.3c-14.8-1.8-29.6-4.1-44.3-6.8
			c-11.7-2.1-23.3-5.5-35-7.5c-8.8-1.5-17.9-1.5-26.8-2.8c-19.2-2.8-38.3-5.9-57.5-8.9c-15.7-2.4-31.3-5-47-7.2
			c-16.5-2.3-33.1-3.5-48.3-11.5c-11.5-6-23.7-10.6-34.9-17.1c-12.6-7.2-25-15.2-36.6-24c-12.8-9.7-24.8-20.4-36.8-31.2
			c-6.8-6.1-13.7-12.6-19-20c-10.6-14.8-16.7-32-24-48.5c-2.5-5.7-3.9-11.9-6.4-17.6c-6.2-14.1-11.8-28.3-13.8-43.8
			c-1.9-14.8-5-29.4-6.3-44.2c-1.4-16.2-1.9-32.5-1.9-48.7c0-10.1,1.9-20.1,2.6-30.2c1.6-20.8,0.4-41.5-0.5-62.3
			c-0.9-19.2,0.4-38.5-0.2-57.8c-0.6-18.1-1.9-36.3-3.9-54.3c-2.1-19.1-6.2-38-8.1-57.1c-2.6-25.6-4.4-51.3-5.7-77
			C109.7,302.5,109.6,279.8,109.1,255.5z"/>
	</g>
</g>
</svg>
