<svg id="Layer_1" data-name="Layer 1" xmlns="http://www.w3.org/2000/svg" viewBox="0 0 1180.36 1713.6">
  <title>G</title>
  <path d="M-668.69,212.62c20.68-1,41.09-2.19,61.52-3,10-.4,20,0.29,29.94-0.32,16.09-1,32.13-2.7,48.2-4,12.44-1,25-1.36,37.33-2.87,15.45-1.88,30.76-4.86,46.18-6.95,11.17-1.51,22.47-2.11,33.65-3.55,13.18-1.7,26.25-4.65,39.47-5.64,19.24-1.44,38.58-1.65,57.88-2.3,8.32-.28,16.67-0.87,25-0.38,10.42,0.62,20.76,2.44,31.17,3.31a145.09,145.09,0,0,0,20.78.42c13.85-.85,27.77,9.64,30.49,23.09,0.91,4.48,3,8.72,4.54,13.07,1.21,3.41,2.34,6.85,3.65,10.22,2.51,6.46,5.14,12.87,7.68,19.31,2.17,5.5,4.19,11.07,6.43,16.54,2.51,6.12,5.59,12,7.73,18.28,2.58,7.52,5.24,15.17,6.42,23,2.44,16.26,3.92,32.67,5.82,49,1.09,9.41,2.75,18.78,3.21,28.22,0.62,12.75.4,25.54,0.4,38.32,0,10.8,0,21.61-.4,32.41-0.11,3.24-1.38,6.44-2,9.67-0.9,4.38-2.15,8.74-2.5,13.16-0.8,10.11-1.11,20.26-1.66,30.39-0.54,9.89-.38,19.89-1.93,29.61-1.07,6.72-4.81,13-6.84,19.58-3.75,12.22-7.71,24.42-10.5,36.87-4.06,18.1-7.13,36.42-10.67,54.64-1.89,9.75-3.53,19.58-6,29.19-1,4.07-3.54,7.9-5.95,11.46C-218.93,707-225,722-231,737.17a223.79,223.79,0,0,1-9.91,21.14c-15.25,29.19-35.44,54.67-59.57,76.92-9,8.31-19.29,15.23-28.86,22.95-6.08,4.91-12.14,9.88-17.81,15.25A133.9,133.9,0,0,1-394,902.67c-11.67,4.23-23.14,9-34.85,13.13-3.29,1.15-7.26.26-10.7,1.12-6.6,1.66-13,4.17-19.56,5.87-15.58,4-31.07,8.62-46.88,11.44-22.26,4-44.73,6.85-67.17,9.63-16.63,2.06-33.4,2.91-50,4.85-10.71,1.25-21.26,3.76-31.95,5.21-15.81,2.14-31.64,4.87-47.54,5.49-22.75.89-45.58,0.48-68.36-.06-21-.5-41.5-5.22-62.05-9.32-8.78-1.75-17.88-1.83-26.68-3.52-11-2.11-21.9-5-32.76-7.76-5.93-1.54-11.76-3.51-17.55-5.56-7.79-2.75-15.48-5.76-23.22-8.64-5.52-2.05-11.13-3.91-16.58-6.15-13-5.34-26.06-10.38-38.7-16.4-19.12-9.11-37.94-18.86-56.78-28.55-5.74-3-11.19-6.52-16.65-10-16.29-10.35-32.42-20.94-48.8-31.16-14.66-9.15-26.26-21.76-38.6-33.51-7.51-7.16-15.3-14.45-21-23-12.13-18.22-24-36.75-34-56.17-8.32-16.14-13.88-33.71-20.51-50.7-3.49-8.94-7.25-17.84-9.83-27.06-4.64-16.6-8.25-33.48-12.73-50.12-4.3-16-9.55-31.7-13.65-47.73a367.55,367.55,0,0,1-7.75-38.12c-3.72-25.64-6.29-51.44-10.16-77.05-3.1-20.52-7.92-40.79-11-61.31-2.6-17.07-4.12-34.32-5.59-51.53-1.09-12.75-1.1-25.59-2-38.36-0.44-6.08-1.9-12.09-2.86-18.14a74.31,74.31,0,0,1-1-7.42c-0.8-14.36-1.38-28.74-2.33-43.09-0.55-8.27-2.12-16.49-2.39-24.76-0.41-12.44.26-24.92-.19-37.36-0.56-15.46-1.77-30.9-2.73-46.34-0.75-12.12-1.07-24.29-2.4-36.34-1.82-16.52-4.46-33-6.66-49.43-1.6-12-2.47-24.17-4.71-36.06-5.54-29.53-8.08-59.3-8.89-89.28-0.56-20.63-1-41.29-2.37-61.87-0.8-11.55-3.86-22.93-5.33-34.46a262.2,262.2,0,0,1-.24-63.23c1.08-9.39.57-19,1.11-28.43,0.66-11.44,1.09-22.95,2.65-34.28,2.94-21.38,6.56-42.66,10-64,1.76-10.82,3.35-21.71,5.91-32.35a106,106,0,0,1,8.1-22.91,291.34,291.34,0,0,0,19.81-51.48c4.27-14.87,12.44-28.16,20.13-41.62,15.74-27.55,37.87-49.65,59.86-71.87,14.72-14.87,30-29.25,45.24-43.55,3.7-3.46,8.54-5.7,12.81-8.56,7.86-5.26,16.12-10,23.44-16,12-9.7,25.71-16,39.6-21.91,12.34-5.26,25.14-9.49,37.88-13.75,13.71-4.59,27.42-9.34,41.42-12.85,18.19-4.56,36.55-8.85,55.07-11.64,22.78-3.43,45.79-5.46,68.76-7.54,10.08-.91,20.28-0.55,30.42-0.61,14.14-.09,28.29-0.49,42.41.07,18.43,0.73,36.82,2.22,55.23,3.48q18.43,1.26,36.83,2.77c29.51,2.4,59,4.54,88,11.51,17.59,4.23,35.53,6.93,53.17,11,18.9,4.32,37.7,9.11,56.4,14.23,11.29,3.09,22.27,7.29,33.45,10.82,7.42,2.34,15,4.2,22.38,6.63,5.79,1.91,11.45,4.25,17.09,6.58,13.62,5.62,27.47,10.8,40.72,17.19a239.93,239.93,0,0,1,32.16,18.56c15,10.35,29.85,21,43.56,33,14.53,12.65,28.1,26.51,41.26,40.62,11.64,12.49,22.56,25.73,33,39.24,9,11.66,17.92,23.62,25.09,36.44,8.07,14.44,15,29.62,18.93,46,4.23,17.53,9.49,34.82,13.35,52.42,2.9,13.23,4.22,26.8,6.36,40.2,1.75,10.94,3.83,21.83,5.5,32.78,1.26,8.29,2.08,16.64,3.13,25,0.23,1.8.78,3.56,0.94,5.36,1,11.17,2,22.34,2.71,33.52,0.78,12.43,1.3,24.87,1.74,37.31,0.1,3-.79,5.93-0.8,8.9,0,6,.45,12.05.31,18.07-0.33,14.08,0,28.27-1.69,42.21-1.28,10.61-6.18,20.75-7.81,31.35-2.05,13.36-8.46,25.23-11.45,38-3,12.64-10.85,22.06-16.35,33-7.12,14.17-17.69,25.68-27.35,37.88-6.13,7.75-15.25,11.09-24.61,13.11-7.41,1.6-15,2.21-22.49,3.53-4.89.86-9.65,2.56-14.56,3.23-9.2,1.25-18.45,2.42-27.72,2.86a217.22,217.22,0,0,1-25.91-.43c-7.57-.55-15.08-2-22.61-3.12-1.64-.24-3.27-0.94-4.89-0.9-17.69.42-34.55-4.65-51.62-8-12.64-2.5-25.41-5.17-37.49-9.51-12.71-4.56-24.95-10.43-35.89-19-10-7.79-19.26-16.23-26.18-26.62-6.35-9.54-10.66-20.41-16.35-30.41-9.84-17.3-14.12-36.31-18.11-55.48-3.62-17.36-7.13-34.76-11.35-52-2.07-8.46-6-16.45-8.43-24.84-2.25-7.74-3.31-15.83-5.48-23.6-2.78-10-4.54-20.42-11.13-28.92-3.07-4-6.28-7.81-9.54-11.62-2.54-3-5.1-6-7.89-8.68-8-7.84-18.25-12.25-28.41-16-15.06-5.57-30.4-11-46.11-14-19.81-3.77-39.86-8.16-60.38-4.65a29.24,29.24,0,0,1-7.44-.14c-4.79-.43-9.42-1.08-13.65,2.47-2.54,2.13-8.73-1.65-11-5.86a173.55,173.55,0,0,0-9.41-15.58c-0.91-1.32-3.4-1.87-5.26-2.15-12-1.83-23.39,1.32-34.92,3.81s-23.47,4.24-35,7.2c-22.73,5.83-46,10.41-65.69,24.49-16.65,11.91-34,23-49.75,36A226.61,226.61,0,0,0-1042.17-236c-6.74,10-14.43,19.48-20.49,29.89-12.57,21.6-22.26,44.3-28,68.94-4.06,17.31-5.78,34.68-7.4,52.18-0.8,8.6-1.32,17.21-1.95,25.83-1,13.57-2.82,27.15-2.72,40.71,0.16,23.42-1.78,46.81.4,70.29,2.22,23.94,2.24,48.09,4.13,72.07,1,12.51,4.15,24.83,5.86,37.3,1.28,9.33,1.76,18.76,2.66,28.14,0.28,3,1,5.88,1.13,8.83,0.29,9.73.42,19.47,0.53,29.2,0.17,16.11.14,32.23,0.44,48.35,0.32,16.77,1.59,33.55,1.22,50.29-0.32,14.24-2.67,28.43-3.55,42.68-0.45,7.3-1.12,14.63.8,22.05,1.16,4.48-.43,9.6,0,14.34,1.71,17,3.55,34,5.82,51a147.48,147.48,0,0,0,5,23.24c2.77,9.1,6.27,18,9.9,26.82,4.67,11.3,9.35,22.64,14.87,33.54A124.6,124.6,0,0,0-1040,560.42c19.22,24.27,43.68,42.42,70.39,57.44,19.11,10.75,39.46,18.58,61.7,20.58q21,1.89,42,4.88c16.71,2.41,33.34,5.37,50,8.16,35.19,5.89,70.3,12.28,105.58,17.59,23.63,3.56,47.5,5.6,71.25,8.34,4.62,0.53,9.3,2,13.83,1.61a198,198,0,0,0,28.44-4.09c13.72-3.22,27.28-7.24,40.75-11.45a52.25,52.25,0,0,0,15.24-7.38c8.94-6.59,18.33-13.09,25.57-21.34,9-10.28,15.27-22.73,19.57-35.92a20,20,0,0,1,1-3.31c4.35-8.09,5.33-16.91,6.37-25.87,0.77-6.67,3.69-13.09,4.53-19.77,1.43-11.36,2-22.84,2.87-34.27a24,24,0,0,0-.56-4.37c-0.87-7.55-7-8.27-12.57-9.55-26.84-6.17-53.94-8.46-81.21-3.75-11.74,2-23.28,5.36-34.81,8.49-21.83,5.92-44.1,7.11-66.37,4.86-14.63-1.48-29.12-4.92-42.61-11.3-1.87-.88-3.32-2.67-4.92-4.1-9.36-8.33-19.11-16.27-27.92-25.15a90.25,90.25,0,0,1-13.82-18.68c-6.18-10.8-11.87-21.93-17-33.29a121,121,0,0,1-9.74-38.29,243.55,243.55,0,0,1,2.5-66.11c2-11.16,6-22,9-33,3.4-12.6,6.47-25.29,10.09-37.82a13.85,13.85,0,0,1,5.13-7.4c10.92-6.94,22.55-12.53,35.37-15.1,14.47-2.91,28.91-6,43.47-8.33C-680.89,211.82-674.61,212.62-668.69,212.62ZM-1139.07-53.54c1.52-29.35,2.79-60.45,4.85-91.49a174.38,174.38,0,0,1,10.73-51c4.31-11.26,8-22.8,14.77-33,4.41-6.61,7.71-14,12.13-20.58,7.21-10.77,14.48-21.56,22.54-31.69,8.58-10.79,17.46-21.49,27.36-31,18.73-18.07,40-33,62.13-46.66,6.77-4.19,13.08-9.44,20.34-12.44a242.31,242.31,0,0,1,35-11.48c21.9-5.34,44-9.93,66.08-14.43,22.36-4.56,44.36-1.76,65.74,5.38,10.11,3.37,19.44,9.13,29.59,12.28a100.29,100.29,0,0,0,25.94,4c13.43,0.47,26.31,3.59,39,7.07,12.52,3.42,24.6,8.47,36.88,12.78,17,5.95,30.88,15.45,41.91,30.25,9.86,13.23,18.55,26.76,25.6,41.69C-590.84-267.76-585.13-251-580-234c3.45,11.37,5.51,23.14,8.45,34.67,3.33,13.08,9.94,25.05,11.59,38.85s5.7,27.16,8.46,40.76c3,14.76,9.6,27.48,21,37.39,7,6.09,15,11.15,21.48,17.75,10.63,10.86,24.38,15.41,38,19.68,12.26,3.84,25.15,5.81,37.86,8.1,12.89,2.32,26,3.51,38.82,6.15a146.56,146.56,0,0,0,41.13,2.73c11.39-.89,22.77-2.07,34.07-3.73,7.18-1.05,14.16-3.34,21.28-4.83,12.37-2.58,23.54-7.3,31.3-17.78,5.91-8,11.84-16,17-24.44s10.35-16.83,13.49-26c5.75-16.71,13.83-32.65,16.66-50.39,2.05-12.91,6.08-25.57,7.34-38.52,1.61-16.63,1.47-33.44,1.8-50.17,0.2-10.3.13-20.62-.32-30.91-0.27-6.27-2.39-12.54-2.13-18.74,0.86-20.56-2.68-40.57-6-60.68-3-18.17-4.92-36.53-8.29-54.63-3.55-19-7.9-37.94-12.65-56.71-1.94-7.66-5.71-14.89-9-22.17a80,80,0,0,0-6-10.08c-0.8-1.24-2.08-2.16-2.92-3.37-7.82-11.35-15.23-23-23.53-34-4.81-6.37-11.13-11.59-16.62-17.47-4-4.35-7.59-9.19-11.8-13.35-6.92-6.84-14.25-13.25-21.33-19.94a418.14,418.14,0,0,0-48.53-39.28c-16.68-11.62-35.19-19.44-53.23-28.27-10.12-5-20.78-8.89-31.39-12.78-16.53-6.06-33.09-12.1-49.88-17.38-14.07-4.43-28.43-8-42.77-11.54-13.45-3.3-27-6.11-40.56-9-14.24-3-28.43-6.43-42.78-8.79-19.76-3.25-39.59-6.3-59.5-8.26-15.29-1.5-30.77-.94-46.14-1.71-19.88-1-39.73-3-59.62-3.52-36-.87-71.94-0.53-107.66,4.62-18.32,2.64-36.82,4.52-54.88,8.4-17.27,3.7-34.14,9.33-51.07,14.5-18.79,5.73-38.18,9.82-55.62,19.41-7.53,4.14-15.28,7.93-22.45,12.63-7.88,5.16-14.88,11.66-22.81,16.72A296.55,296.55,0,0,0-1173.48-606c-16.21,16.78-31.75,34.26-46.84,52.06a224.4,224.4,0,0,0-32.9,51.25c-4.12,9-6.22,18.83-9.68,28.12-4.58,12.3-9.6,24.43-14.43,36.64-2.74,6.95-6.17,13.72-8,20.89-4,15.37-7.81,30.84-10.59,46.46-3.49,19.62-6.31,39.38-8.58,59.17-1.38,12-1,24.24-1.7,36.36-0.86,15.44-2.39,30.86-2.84,46.3-0.26,9.07.74,18.21,1.65,27.28,1,9.53,2.61,19,3.72,28.52,1.18,10.23,2.68,20.48,3,30.75,0.83,27.45,1,54.92,1.62,82.37a140,140,0,0,0,1.32,15.91c1.66,12.18,3.82,24.3,5.32,36.5,1.46,11.86,2.09,23.82,3.55,35.69,1.91,15.49,5,30.86,6.27,46.39,2.33,29,3.68,58.1,5.47,87.16q2.75,44.47,5.6,88.93c0.66,10.1,1.81,20.18,2.49,30.28,1.27,18.91,3.09,37.83,3.35,56.76,0.35,26.19,8.39,51,11.91,76.65,2.59,18.92,5.73,37.76,8.45,56.66,2.79,19.34,4.81,38.81,8.24,58,2.86,16.1,7,32,11.06,47.84,3.82,14.74,9.33,29.09,12.36,44A395,395,0,0,0-1195,684.1c6.27,16.32,12.54,32.7,20,48.49,5.42,11.44,12.37,22.24,19.45,32.78,5.61,8.35,12.26,16.05,18.84,23.7a98.61,98.61,0,0,0,11.93,11.2c8.79,7.31,17.39,14.93,26.77,21.41,12,8.28,24.58,15.66,37,23.27,7.9,4.83,15.82,9.68,24,13.94,13.54,7,27.31,13.62,41,20.35,10.28,5,20.31,10.73,31,14.84,18.07,7,36.57,12.88,54.83,19.38,13.09,4.66,26.17,9.29,40.08,10.82,9.88,1.09,19.81,1.76,29.68,2.95,11.12,1.35,22.16,3.6,33.31,4.5,15.51,1.26,31.09,1.87,46.65,2.34a330,330,0,0,0,58.18-2.87c15.07-2.22,30.15-4.41,45.21-6.68,11-1.65,21.87-3.63,32.84-5.1,15.61-2.1,31.29-3.73,46.9-5.84,11.5-1.56,23-3.14,34.38-5.47,17.5-3.58,35-7.22,52.24-11.95,14.83-4.08,29.2-9.81,43.83-14.64,16.42-5.42,32.24-12.3,46.6-21.85,11-7.31,21.08-16,31.39-24.29q11.27-9.07,22.06-18.74c10.37-9.3,21.34-18.12,30.55-28.49,10.76-12.12,20.16-25.48,29.62-38.69a138.75,138.75,0,0,0,13.3-22.54c4.83-10.49,8.27-21.61,12.75-32.28,6.71-16,15.86-30.92,20-48,2.24-9.26,4.88-18.43,7.1-27.7,1-4.35,1.3-8.88,2.3-13.24,2.9-12.59,6-25.14,9-37.7,2.62-10.79,3.94-22.14,8.21-32.24,8.23-19.46,10.92-39.69,12.24-60.38,0.82-12.89,1.86-25.76,2.94-38.63,0.85-10.07,2.08-20.1,2.83-30.17,0.55-7.29.75-14.62,0.82-21.94,0.08-8.65.33-17.34-.37-25.94-1-12.73-2.72-25.42-4.37-38.09-1.78-13.66-3.66-27.31-5.91-40.89-0.54-3.23-2.94-6.11-4.05-9.31-2.29-6.57-4.17-13.27-6.42-19.85-3.14-9.2-6.72-18.26-9.62-27.54-1.69-5.39-6.08-10.25-11.88-10.52-14.68-.68-29.37-1.2-44.06-1.4-12.31-.16-24.64.11-37,0.43-11.62.3-23.29,0.41-34.85,1.53-14.84,1.43-29.61,3.73-44.39,5.75-15.07,2.06-30.1,4.36-45.18,6.35s-30,3.89-45.06,5.47c-11.41,1.19-22.88,1.79-34.32,2.69-13.75,1.07-27.49,2.37-41.26,3.21-13.28.81-26.59,1.21-39.89,1.69-18.12.66-36.25,1.21-54.37,1.82-4.49.15-9.11-.25-13.44,0.68-17.34,3.76-34.68,7.57-51.83,12.1-11.22,3-19.36,9.76-22.31,21.84-2.67,10.91-5.54,21.82-9.13,32.46-7.45,22.09-11.59,44.71-11.37,68,0.09,10.08,1.69,20.14,2.63,30.21,1.12,12,6.94,22.21,12.2,32.58,2.7,5.32,7.31,9.71,9.76,15.11,5,11,14.88,16.89,24.35,21.69,10.95,5.55,23.7,7,36.34,7.35,23.08,0.59,45.09-5.26,67.28-10.19,24-5.33,48.2-7.49,72.7-5.3,15,1.34,29.92,3.23,44.9,4.73,12,1.2,22.91,5,32.24,12.78a11,11,0,0,1,2.23,2.57c6.65,10.69,9.71,22.58,11.44,34.89a81.41,81.41,0,0,1,1.13,12.25c0,3.6-1.44,7.18-1.47,10.78-0.13,16.83-1.81,33.49-6.58,49.63-3.91,13.21-4,27.65-12.33,39.46a2.1,2.1,0,0,0-.13.48c-3,8.07-5.67,15.9-13.46,21.38-9.6,6.75-18.06,15.12-27.39,22.29A86.31,86.31,0,0,1-527,687.91c-4.24,1.93-9.22,2.31-13.9,3.2-11.72,2.24-23.47,4.35-35.19,6.61-1.92.37-3.71,1.34-5.61,1.8-6,1.44-12.06,4.28-17.9,3.85-14.7-1.07-29.27-3.89-43.94-5.5-13-1.43-26.2-1.77-39.22-3.35-14.84-1.8-29.63-4.14-44.34-6.79-11.75-2.12-23.28-5.45-35-7.49-8.82-1.53-17.89-1.5-26.76-2.78-19.2-2.77-38.33-5.95-57.5-8.94-15.66-2.44-31.3-5-47-7.22-16.48-2.35-33.13-3.52-48.34-11.52-11.47-6-23.72-10.64-34.94-17.06a343.92,343.92,0,0,1-36.63-24c-12.81-9.69-24.84-20.45-36.79-31.21-6.81-6.14-13.66-12.58-19-20-10.56-14.78-16.72-32-24-48.5-2.51-5.7-3.88-11.9-6.39-17.6-6.21-14.12-11.84-28.33-13.82-43.81-1.89-14.75-5-29.37-6.31-44.16-1.45-16.18-1.94-32.49-1.94-48.74,0-10.06,1.87-20.11,2.62-30.18,1.55-20.79.42-41.55-.53-62.35-0.87-19.23.41-38.55-.22-57.8-0.59-18.11-1.88-36.25-3.89-54.26-2.13-19.11-6.15-38-8.09-57.13-2.59-25.6-4.41-51.29-5.74-77C-1138.47-6.55-1138.5-29.18-1139.07-53.54Z" transform="translate(1341.58 753.67)"/>
</svg>
