<?xml version="1.0" encoding="utf-8"?>
<!-- Generator: Adobe Illustrator 19.2.0, SVG Export Plug-In . SVG Version: 6.00 Build 0)  -->
<svg version="1.1" id="Layer_1" xmlns="http://www.w3.org/2000/svg" xmlns:xlink="http://www.w3.org/1999/xlink" x="0px" y="0px"
	 viewBox="0 0 415.4 506.1" style="enable-background:new 0 0 415.4 506.1;" xml:space="preserve">
<g>
	<g>
		<path d="M50.2,18.1C141.7,9.3,233.9,3,325.9,8.6c26.5,1.6,53,4.2,79.3,8c1.9,0.3,2.7-2.6,0.8-2.9c-91.6-13.1-184.6-12-276.7-5.4
			c-26.4,1.9-52.8,4.2-79.1,6.8C48.3,15.3,48.3,18.3,50.2,18.1L50.2,18.1z"/>
	</g>
</g>
<g>
	<g>
		<path d="M43.7,19.2c-3.4,62.5-6.7,125-10.1,187.5c-3.3,61.3-5.8,122.8-15.4,183.5c-5.3,33.4-12,66.8-10.4,100.8
			c0.1,1.9,3.1,1.9,3,0c-1.5-31.1,4-61.8,9-92.3C24.7,369,28.1,339,30.4,309c4.8-61.2,7.2-122.7,10.5-184
			c1.9-35.2,3.8-70.5,5.7-105.7C46.8,17.3,43.8,17.3,43.7,19.2L43.7,19.2z"/>
	</g>
</g>
<g>
	<g>
		<path d="M407.4,16c-4.7,63.1-9.2,126.2-9.2,189.5c0.1,62.7,2.8,125.5-4.1,187.9c-3.9,35.2-9.1,70.3-13.8,105.4
			c-0.3,1.9,2.7,1.9,3,0c4.2-31.2,8.6-62.4,12.4-93.6c3.9-31.5,5.7-63.1,6.1-94.8c0.8-62.7-1.6-125.2,1.6-187.9
			c1.8-35.5,4.4-71,7.1-106.5C410.5,14.1,407.5,14.1,407.4,16L407.4,16z"/>
	</g>
</g>
<g>
	<g>
		<path d="M66.8,57c-1.6,19.9-2.4,39.8-2.4,59.7c0,1.9,3,1.9,3,0c-0.1-19.9,0.7-39.8,2.4-59.7C70,55.1,67,55.1,66.8,57L66.8,57z"/>
	</g>
</g>
<g>
	<g>
		<path d="M69.8,59.7c10.5-0.5,21-0.2,31.5,0.9c1.9,0.2,1.9-2.8,0-3c-10.5-1.1-21-1.4-31.5-0.9C67.8,56.8,67.8,59.8,69.8,59.7
			L69.8,59.7z"/>
	</g>
</g>
<g>
	<g>
		<path d="M84.8,62.2c-3.4,12.5-5,25.3-4.7,38.3c0,1.9,3,1.9,3,0c-0.3-12.7,1.2-25.2,4.6-37.5C88.2,61.1,85.3,60.3,84.8,62.2
			L84.8,62.2z"/>
	</g>
</g>
<g>
	<g>
		<path d="M69.8,83.5c6.9,0,13.7,0,20.6,0c1.9,0,1.9-3,0-3c-6.9,0-13.7,0-20.6,0C67.8,80.5,67.8,83.5,69.8,83.5L69.8,83.5z"/>
	</g>
</g>
<g>
	<g>
		<path d="M141.5,57c-1.6,19.9-2.4,39.8-2.4,59.7c0,1.9,3,1.9,3,0c-0.1-19.9,0.7-39.8,2.4-59.7C144.6,55.1,141.6,55.1,141.5,57
			L141.5,57z"/>
	</g>
</g>
<g>
	<g>
		<path d="M144.4,59.7c10.5-0.5,21-0.2,31.5,0.9c1.9,0.2,1.9-2.8,0-3c-10.5-1.1-21-1.4-31.5-0.9C142.5,56.8,142.5,59.8,144.4,59.7
			L144.4,59.7z"/>
	</g>
</g>
<g>
	<g>
		<path d="M159.5,62.2c-3.4,12.5-5,25.3-4.7,38.3c0,1.9,3,1.9,3,0c-0.3-12.7,1.2-25.2,4.6-37.5C162.9,61.1,160,60.3,159.5,62.2
			L159.5,62.2z"/>
	</g>
</g>
<g>
	<g>
		<path d="M144.4,83.5c6.9,0,13.7,0,20.6,0c1.9,0,1.9-3,0-3c-6.9,0-13.7,0-20.6,0C142.5,80.5,142.5,83.5,144.4,83.5L144.4,83.5z"/>
	</g>
</g>
<g>
	<g>
		<path d="M219.6,57c-1.6,19.9-2.4,39.8-2.4,59.7c0,1.9,3,1.9,3,0c-0.1-19.9,0.7-39.8,2.4-59.7C222.8,55.1,219.8,55.1,219.6,57
			L219.6,57z"/>
	</g>
</g>
<g>
	<g>
		<path d="M222.6,59.7c10.5-0.5,21-0.2,31.5,0.9c1.9,0.2,1.9-2.8,0-3c-10.5-1.1-21-1.4-31.5-0.9C220.6,56.8,220.6,59.8,222.6,59.7
			L222.6,59.7z"/>
	</g>
</g>
<g>
	<g>
		<path d="M237.6,62.2c-3.4,12.5-5,25.3-4.7,38.3c0,1.9,3,1.9,3,0c-0.3-12.7,1.2-25.2,4.6-37.5C241,61.1,238.1,60.3,237.6,62.2
			L237.6,62.2z"/>
	</g>
</g>
<g>
	<g>
		<path d="M222.5,83.5c6.9,0,13.7,0,20.6,0c1.9,0,1.9-3,0-3c-6.9,0-13.7,0-20.6,0C220.6,80.5,220.6,83.5,222.5,83.5L222.5,83.5z"/>
	</g>
</g>
<g>
	<g>
		<path d="M294.3,57c-1.6,19.9-2.4,39.8-2.4,59.7c0,1.9,3,1.9,3,0c-0.1-19.9,0.7-39.8,2.4-59.7C297.4,55.1,294.4,55.1,294.3,57
			L294.3,57z"/>
	</g>
</g>
<g>
	<g>
		<path d="M297.2,59.7c10.5-0.5,21-0.2,31.5,0.9c1.9,0.2,1.9-2.8,0-3c-10.5-1.1-21-1.4-31.5-0.9C295.3,56.8,295.3,59.8,297.2,59.7
			L297.2,59.7z"/>
	</g>
</g>
<g>
	<g>
		<path d="M312.3,62.2c-3.4,12.5-5,25.3-4.7,38.3c0,1.9,3,1.9,3,0c-0.3-12.7,1.2-25.2,4.6-37.5C315.7,61.1,312.8,60.3,312.3,62.2
			L312.3,62.2z"/>
	</g>
</g>
<g>
	<g>
		<path d="M297.2,83.5c6.9,0,13.7,0,20.6,0c1.9,0,1.9-3,0-3c-6.9,0-13.7,0-20.6,0C295.3,80.5,295.3,83.5,297.2,83.5L297.2,83.5z"/>
	</g>
</g>
<g>
	<g>
		<path d="M356.8,57c-1.6,19.9-2.4,39.8-2.4,59.7c0,1.9,3,1.9,3,0c-0.1-19.9,0.7-39.8,2.4-59.7C359.9,55.1,356.9,55.1,356.8,57
			L356.8,57z"/>
	</g>
</g>
<g>
	<g>
		<path d="M359.7,59.7c10.5-0.5,21-0.2,31.5,0.9c1.9,0.2,1.9-2.8,0-3c-10.5-1.1-21-1.4-31.5-0.9C357.8,56.8,357.8,59.8,359.7,59.7
			L359.7,59.7z"/>
	</g>
</g>
<g>
	<g>
		<path d="M374.8,62.2c-3.4,12.5-5,25.3-4.7,38.3c0,1.9,3,1.9,3,0c-0.3-12.7,1.2-25.2,4.6-37.5C378.2,61.1,375.3,60.3,374.8,62.2
			L374.8,62.2z"/>
	</g>
</g>
<g>
	<g>
		<path d="M359.7,83.5c6.9,0,13.7,0,20.6,0c1.9,0,1.9-3,0-3c-6.9,0-13.7,0-20.6,0C357.8,80.5,357.8,83.5,359.7,83.5L359.7,83.5z"/>
	</g>
</g>
<g>
	<g>
		<path d="M61.6,157.7c-1.6,19.9-2.4,39.8-2.4,59.7c0,1.9,3,1.9,3,0c-0.1-19.9,0.7-39.8,2.4-59.7C64.8,155.8,61.8,155.8,61.6,157.7
			L61.6,157.7z"/>
	</g>
</g>
<g>
	<g>
		<path d="M64.6,160.4c10.5-0.5,21-0.2,31.5,0.9c1.9,0.2,1.9-2.8,0-3c-10.5-1.1-21-1.4-31.5-0.9C62.6,157.5,62.6,160.5,64.6,160.4
			L64.6,160.4z"/>
	</g>
</g>
<g>
	<g>
		<path d="M79.6,162.9c-3.4,12.5-5,25.3-4.7,38.3c0,1.9,3,1.9,3,0c-0.3-12.7,1.2-25.2,4.6-37.5C83,161.8,80.1,161,79.6,162.9
			L79.6,162.9z"/>
	</g>
</g>
<g>
	<g>
		<path d="M64.6,184.2c6.9,0,13.7,0,20.6,0c1.9,0,1.9-3,0-3c-6.9,0-13.7,0-20.6,0C62.6,181.2,62.6,184.2,64.6,184.2L64.6,184.2z"/>
	</g>
</g>
<g>
	<g>
		<path d="M136.3,157.7c-1.6,19.9-2.4,39.8-2.4,59.7c0,1.9,3,1.9,3,0c-0.1-19.9,0.7-39.8,2.4-59.7
			C139.4,155.8,136.4,155.8,136.3,157.7L136.3,157.7z"/>
	</g>
</g>
<g>
	<g>
		<path d="M139.2,160.4c10.5-0.5,21-0.2,31.5,0.9c1.9,0.2,1.9-2.8,0-3c-10.5-1.1-21-1.4-31.5-0.9
			C137.3,157.5,137.3,160.5,139.2,160.4L139.2,160.4z"/>
	</g>
</g>
<g>
	<g>
		<path d="M154.3,162.9c-3.4,12.5-5,25.3-4.7,38.3c0,1.9,3,1.9,3,0c-0.3-12.7,1.2-25.2,4.6-37.5C157.7,161.8,154.8,161,154.3,162.9
			L154.3,162.9z"/>
	</g>
</g>
<g>
	<g>
		<path d="M139.2,184.2c6.9,0,13.7,0,20.6,0c1.9,0,1.9-3,0-3c-6.9,0-13.7,0-20.6,0C137.3,181.2,137.3,184.2,139.2,184.2L139.2,184.2
			z"/>
	</g>
</g>
<g>
	<g>
		<path d="M214.4,157.7c-1.6,19.9-2.4,39.8-2.4,59.7c0,1.9,3,1.9,3,0c-0.1-19.9,0.7-39.8,2.4-59.7
			C217.5,155.8,214.5,155.8,214.4,157.7L214.4,157.7z"/>
	</g>
</g>
<g>
	<g>
		<path d="M217.3,160.4c10.5-0.5,21-0.2,31.5,0.9c1.9,0.2,1.9-2.8,0-3c-10.5-1.1-21-1.4-31.5-0.9
			C215.4,157.5,215.4,160.5,217.3,160.4L217.3,160.4z"/>
	</g>
</g>
<g>
	<g>
		<path d="M232.4,162.9c-3.4,12.5-5,25.3-4.7,38.3c0,1.9,3,1.9,3,0c-0.3-12.7,1.2-25.2,4.6-37.5C235.8,161.8,232.9,161,232.4,162.9
			L232.4,162.9z"/>
	</g>
</g>
<g>
	<g>
		<path d="M217.3,184.2c6.9,0,13.7,0,20.6,0c1.9,0,1.9-3,0-3c-6.9,0-13.7,0-20.6,0C215.4,181.2,215.4,184.2,217.3,184.2L217.3,184.2
			z"/>
	</g>
</g>
<g>
	<g>
		<path d="M289,157.7c-1.6,19.9-2.4,39.8-2.4,59.7c0,1.9,3,1.9,3,0c-0.1-19.9,0.7-39.8,2.4-59.7C292.2,155.8,289.2,155.8,289,157.7
			L289,157.7z"/>
	</g>
</g>
<g>
	<g>
		<path d="M292,160.4c10.5-0.5,21-0.2,31.5,0.9c1.9,0.2,1.9-2.8,0-3c-10.5-1.1-21-1.4-31.5-0.9C290.1,157.5,290.1,160.5,292,160.4
			L292,160.4z"/>
	</g>
</g>
<g>
	<g>
		<path d="M307.1,162.9c-3.4,12.5-5,25.3-4.7,38.3c0,1.9,3,1.9,3,0c-0.3-12.7,1.2-25.2,4.6-37.5C310.5,161.8,307.6,161,307.1,162.9
			L307.1,162.9z"/>
	</g>
</g>
<g>
	<g>
		<path d="M292,184.2c6.9,0,13.7,0,20.6,0c1.9,0,1.9-3,0-3c-6.9,0-13.7,0-20.6,0C290.1,181.2,290.1,184.2,292,184.2L292,184.2z"/>
	</g>
</g>
<g>
	<g>
		<path d="M351.5,157.7c-1.6,19.9-2.4,39.8-2.4,59.7c0,1.9,3,1.9,3,0c-0.1-19.9,0.7-39.8,2.4-59.7
			C354.7,155.8,351.7,155.8,351.5,157.7L351.5,157.7z"/>
	</g>
</g>
<g>
	<g>
		<path d="M354.5,160.4c10.5-0.5,21-0.2,31.5,0.9c1.9,0.2,1.9-2.8,0-3c-10.5-1.1-21-1.4-31.5-0.9
			C352.6,157.5,352.6,160.5,354.5,160.4L354.5,160.4z"/>
	</g>
</g>
<g>
	<g>
		<path d="M369.6,162.9c-3.4,12.5-5,25.3-4.7,38.3c0,1.9,3,1.9,3,0c-0.3-12.7,1.2-25.2,4.6-37.5C373,161.8,370.1,161,369.6,162.9
			L369.6,162.9z"/>
	</g>
</g>
<g>
	<g>
		<path d="M354.5,184.2c6.9,0,13.7,0,20.6,0c1.9,0,1.9-3,0-3c-6.9,0-13.7,0-20.6,0C352.6,181.2,352.6,184.2,354.5,184.2L354.5,184.2
			z"/>
	</g>
</g>
<g>
	<g>
		<path d="M56.4,249.8c-1.6,19.9-2.4,39.8-2.4,59.7c0,1.9,3,1.9,3,0c-0.1-19.9,0.7-39.8,2.4-59.7C59.6,247.8,56.5,247.8,56.4,249.8
			L56.4,249.8z"/>
	</g>
</g>
<g>
	<g>
		<path d="M59.3,252.5c10.5-0.5,21-0.2,31.5,0.9c1.9,0.2,1.9-2.8,0-3c-10.5-1.1-21-1.4-31.5-0.9C57.4,249.6,57.4,252.6,59.3,252.5
			L59.3,252.5z"/>
	</g>
</g>
<g>
	<g>
		<path d="M74.4,254.9c-3.4,12.5-5,25.3-4.7,38.3c0,1.9,3,1.9,3,0c-0.3-12.7,1.2-25.2,4.6-37.5C77.8,253.8,74.9,253,74.4,254.9
			L74.4,254.9z"/>
	</g>
</g>
<g>
	<g>
		<path d="M59.3,276.3c6.9,0,13.7,0,20.6,0c1.9,0,1.9-3,0-3c-6.9,0-13.7,0-20.6,0C57.4,273.3,57.4,276.3,59.3,276.3L59.3,276.3z"/>
	</g>
</g>
<g>
	<g>
		<path d="M131,249.8c-1.6,19.9-2.4,39.8-2.4,59.7c0,1.9,3,1.9,3,0c-0.1-19.9,0.7-39.8,2.4-59.7C134.2,247.8,131.2,247.8,131,249.8
			L131,249.8z"/>
	</g>
</g>
<g>
	<g>
		<path d="M134,252.5c10.5-0.5,21-0.2,31.5,0.9c1.9,0.2,1.9-2.8,0-3c-10.5-1.1-21-1.4-31.5-0.9C132.1,249.6,132.1,252.6,134,252.5
			L134,252.5z"/>
	</g>
</g>
<g>
	<g>
		<path d="M149.1,254.9c-3.4,12.5-5,25.3-4.7,38.3c0,1.9,3,1.9,3,0c-0.3-12.7,1.2-25.2,4.6-37.5C152.5,253.8,149.6,253,149.1,254.9
			L149.1,254.9z"/>
	</g>
</g>
<g>
	<g>
		<path d="M134,276.3c6.9,0,13.7,0,20.6,0c1.9,0,1.9-3,0-3c-6.9,0-13.7,0-20.6,0C132.1,273.3,132.1,276.3,134,276.3L134,276.3z"/>
	</g>
</g>
<g>
	<g>
		<path d="M209.2,249.8c-1.6,19.9-2.4,39.8-2.4,59.7c0,1.9,3,1.9,3,0c-0.1-19.9,0.7-39.8,2.4-59.7
			C212.3,247.8,209.3,247.8,209.2,249.8L209.2,249.8z"/>
	</g>
</g>
<g>
	<g>
		<path d="M212.1,252.5c10.5-0.5,21-0.2,31.5,0.9c1.9,0.2,1.9-2.8,0-3c-10.5-1.1-21-1.4-31.5-0.9
			C210.2,249.6,210.2,252.6,212.1,252.5L212.1,252.5z"/>
	</g>
</g>
<g>
	<g>
		<path d="M227.2,254.9c-3.4,12.5-5,25.3-4.7,38.3c0,1.9,3,1.9,3,0c-0.3-12.7,1.2-25.2,4.6-37.5C230.6,253.8,227.7,253,227.2,254.9
			L227.2,254.9z"/>
	</g>
</g>
<g>
	<g>
		<path d="M212.1,276.3c6.9,0,13.7,0,20.6,0c1.9,0,1.9-3,0-3c-6.9,0-13.7,0-20.6,0C210.2,273.3,210.2,276.3,212.1,276.3L212.1,276.3
			z"/>
	</g>
</g>
<g>
	<g>
		<path d="M283.8,249.8c-1.6,19.9-2.4,39.8-2.4,59.7c0,1.9,3,1.9,3,0c-0.1-19.9,0.7-39.8,2.4-59.7C287,247.8,284,247.8,283.8,249.8
			L283.8,249.8z"/>
	</g>
</g>
<g>
	<g>
		<path d="M286.8,252.5c10.5-0.5,21-0.2,31.5,0.9c1.9,0.2,1.9-2.8,0-3c-10.5-1.1-21-1.4-31.5-0.9
			C284.9,249.6,284.9,252.6,286.8,252.5L286.8,252.5z"/>
	</g>
</g>
<g>
	<g>
		<path d="M301.9,254.9c-3.4,12.5-5,25.3-4.7,38.3c0,1.9,3,1.9,3,0c-0.3-12.7,1.2-25.2,4.6-37.5C305.3,253.8,302.4,253,301.9,254.9
			L301.9,254.9z"/>
	</g>
</g>
<g>
	<g>
		<path d="M286.8,276.3c6.9,0,13.7,0,20.6,0c1.9,0,1.9-3,0-3c-6.9,0-13.7,0-20.6,0C284.9,273.3,284.9,276.3,286.8,276.3L286.8,276.3
			z"/>
	</g>
</g>
<g>
	<g>
		<path d="M346.3,249.8c-1.6,19.9-2.4,39.8-2.4,59.7c0,1.9,3,1.9,3,0c-0.1-19.9,0.7-39.8,2.4-59.7
			C349.5,247.8,346.5,247.8,346.3,249.8L346.3,249.8z"/>
	</g>
</g>
<g>
	<g>
		<path d="M349.3,252.5c10.5-0.5,21-0.2,31.5,0.9c1.9,0.2,1.9-2.8,0-3c-10.5-1.1-21-1.4-31.5-0.9
			C347.4,249.6,347.4,252.6,349.3,252.5L349.3,252.5z"/>
	</g>
</g>
<g>
	<g>
		<path d="M364.4,254.9c-3.4,12.5-5,25.3-4.7,38.3c0,1.9,3,1.9,3,0c-0.3-12.7,1.2-25.2,4.6-37.5C367.8,253.8,364.9,253,364.4,254.9
			L364.4,254.9z"/>
	</g>
</g>
<g>
	<g>
		<path d="M349.3,276.3c6.9,0,13.7,0,20.6,0c1.9,0,1.9-3,0-3c-6.9,0-13.7,0-20.6,0C347.4,273.3,347.4,276.3,349.3,276.3L349.3,276.3
			z"/>
	</g>
</g>
<g>
	<g>
		<path d="M49.4,340c-1.6,19.9-2.4,39.8-2.4,59.7c0,1.9,3,1.9,3,0c-0.1-19.9,0.7-39.8,2.4-59.7C52.6,338.1,49.6,338.1,49.4,340
			L49.4,340z"/>
	</g>
</g>
<g>
	<g>
		<path d="M52.4,342.7c10.5-0.5,21-0.2,31.5,0.9c1.9,0.2,1.9-2.8,0-3c-10.5-1.1-21-1.4-31.5-0.9C50.5,339.8,50.5,342.8,52.4,342.7
			L52.4,342.7z"/>
	</g>
</g>
<g>
	<g>
		<path d="M67.5,345.2c-3.4,12.5-5,25.3-4.7,38.3c0,1.9,3,1.9,3,0c-0.3-12.7,1.2-25.2,4.6-37.5C70.9,344.1,68,343.3,67.5,345.2
			L67.5,345.2z"/>
	</g>
</g>
<g>
	<g>
		<path d="M52.4,366.5c6.9,0,13.7,0,20.6,0c1.9,0,1.9-3,0-3c-6.9,0-13.7,0-20.6,0C50.5,363.5,50.5,366.5,52.4,366.5L52.4,366.5z"/>
	</g>
</g>
<g>
	<g>
		<path d="M124.1,340c-1.6,19.9-2.4,39.8-2.4,59.7c0,1.9,3,1.9,3,0c-0.1-19.9,0.7-39.8,2.4-59.7C127.3,338.1,124.3,338.1,124.1,340
			L124.1,340z"/>
	</g>
</g>
<g>
	<g>
		<path d="M127.1,342.7c10.5-0.5,21-0.2,31.5,0.9c1.9,0.2,1.9-2.8,0-3c-10.5-1.1-21-1.4-31.5-0.9
			C125.1,339.8,125.1,342.8,127.1,342.7L127.1,342.7z"/>
	</g>
</g>
<g>
	<g>
		<path d="M142.1,345.2c-3.4,12.5-5,25.3-4.7,38.3c0,1.9,3,1.9,3,0c-0.3-12.7,1.2-25.2,4.6-37.5
			C145.5,344.1,142.6,343.3,142.1,345.2L142.1,345.2z"/>
	</g>
</g>
<g>
	<g>
		<path d="M127.1,366.5c6.9,0,13.7,0,20.6,0c1.9,0,1.9-3,0-3c-6.9,0-13.7,0-20.6,0C125.1,363.5,125.1,366.5,127.1,366.5L127.1,366.5
			z"/>
	</g>
</g>
<g>
	<g>
		<path d="M202.2,340c-1.6,19.9-2.4,39.8-2.4,59.7c0,1.9,3,1.9,3,0c-0.1-19.9,0.7-39.8,2.4-59.7C205.4,338.1,202.4,338.1,202.2,340
			L202.2,340z"/>
	</g>
</g>
<g>
	<g>
		<path d="M205.2,342.7c10.5-0.5,21-0.2,31.5,0.9c1.9,0.2,1.9-2.8,0-3c-10.5-1.1-21-1.4-31.5-0.9
			C203.3,339.8,203.3,342.8,205.2,342.7L205.2,342.7z"/>
	</g>
</g>
<g>
	<g>
		<path d="M220.3,345.2c-3.4,12.5-5,25.3-4.7,38.3c0,1.9,3,1.9,3,0c-0.3-12.7,1.2-25.2,4.6-37.5
			C223.7,344.1,220.8,343.3,220.3,345.2L220.3,345.2z"/>
	</g>
</g>
<g>
	<g>
		<path d="M205.2,366.5c6.9,0,13.7,0,20.6,0c1.9,0,1.9-3,0-3c-6.9,0-13.7,0-20.6,0C203.3,363.5,203.3,366.5,205.2,366.5L205.2,366.5
			z"/>
	</g>
</g>
<g>
	<g>
		<path d="M276.9,340c-1.6,19.9-2.4,39.8-2.4,59.7c0,1.9,3,1.9,3,0c-0.1-19.9,0.7-39.8,2.4-59.7C280,338.1,277,338.1,276.9,340
			L276.9,340z"/>
	</g>
</g>
<g>
	<g>
		<path d="M279.8,342.7c10.5-0.5,21-0.2,31.5,0.9c1.9,0.2,1.9-2.8,0-3c-10.5-1.1-21-1.4-31.5-0.9
			C277.9,339.8,277.9,342.8,279.8,342.7L279.8,342.7z"/>
	</g>
</g>
<g>
	<g>
		<path d="M294.9,345.2c-3.4,12.5-5,25.3-4.7,38.3c0,1.9,3,1.9,3,0c-0.3-12.7,1.2-25.2,4.6-37.5
			C298.3,344.1,295.4,343.3,294.9,345.2L294.9,345.2z"/>
	</g>
</g>
<g>
	<g>
		<path d="M279.8,366.5c6.9,0,13.7,0,20.6,0c1.9,0,1.9-3,0-3c-6.9,0-13.7,0-20.6,0C277.9,363.5,277.9,366.5,279.8,366.5L279.8,366.5
			z"/>
	</g>
</g>
<g>
	<g>
		<path d="M339.4,340c-1.6,19.9-2.4,39.8-2.4,59.7c0,1.9,3,1.9,3,0c-0.1-19.9,0.7-39.8,2.4-59.7C342.6,338.1,339.6,338.1,339.4,340
			L339.4,340z"/>
	</g>
</g>
<g>
	<g>
		<path d="M342.3,342.7c10.5-0.5,21-0.2,31.5,0.9c1.9,0.2,1.9-2.8,0-3c-10.5-1.1-21-1.4-31.5-0.9
			C340.4,339.8,340.4,342.8,342.3,342.7L342.3,342.7z"/>
	</g>
</g>
<g>
	<g>
		<path d="M357.4,345.2c-3.4,12.5-5,25.3-4.7,38.3c0,1.9,3,1.9,3,0c-0.3-12.7,1.2-25.2,4.6-37.5
			C360.8,344.1,357.9,343.3,357.4,345.2L357.4,345.2z"/>
	</g>
</g>
<g>
	<g>
		<path d="M342.3,366.5c6.9,0,13.7,0,20.6,0c1.9,0,1.9-3,0-3c-6.9,0-13.7,0-20.6,0C340.4,363.5,340.4,366.5,342.3,366.5L342.3,366.5
			z"/>
	</g>
</g>
</svg>
