<svg id="Layer_1" data-name="Layer 1" xmlns="http://www.w3.org/2000/svg" viewBox="0 0 286.32 155.28">
  <title>mask4</title>
  <style>
    .cls-1 {
      fill: #ffffff;
    }
  </style>
  <path class="cls-1" d="M-322.76,405.52V250.24H-36.44c0,0.56,0,1.12,0,1.68q0,75.94,0,151.88v1.69H-321.08C-321.64,405.49-322.2,405.51-322.76,405.52Zm83.24-149-7.94.62a62.22,62.22,0,0,0-13.8,2.86,71,71,0,0,0-20.64,10.43A69.91,69.91,0,0,0-296,284.11a71.46,71.46,0,0,0-9.69,16.65,69,69,0,0,0-5.3,25.79,57.4,57.4,0,0,0,.23,6.18A95.88,95.88,0,0,0-309.5,343a69.55,69.55,0,0,0,7.88,20.47,62.33,62.33,0,0,0,9.15,12.44,103.51,103.51,0,0,0,9.71,8.77,67.16,67.16,0,0,0,19,10.34c8.39,3.09,17.12,4.11,26,4.29,2.3,0,4.61-.18,6.92-0.21a56.57,56.57,0,0,0,12.69-1.95,44,44,0,0,0,12.06-4.6,70.13,70.13,0,0,0,13.61-11c1.75-1.74,3.39-3.6,5.13-5.34,2.17-2.17,4.42-4.26,6.62-6.4a28,28,0,0,1,12-7.25,11.68,11.68,0,0,1,10.44,1.53,31.91,31.91,0,0,1,3.54,3.19c3.75,3.64,7.43,7.36,11.23,10.95,2.36,2.23,4.83,4.33,7.34,6.39a55.44,55.44,0,0,0,11.75,7.62,78,78,0,0,0,10.64,4.09,57.28,57.28,0,0,0,9.6,1.75,65.22,65.22,0,0,0,7,.06A40.91,40.91,0,0,0-84.5,396a52.15,52.15,0,0,0,14.31-7.34,53.61,53.61,0,0,0,11.34-10.75,49.14,49.14,0,0,0,8.67-16.63,58.19,58.19,0,0,0,2-9.18,64.54,64.54,0,0,0,.27-9.24,51.42,51.42,0,0,0-.71-7.34,49.59,49.59,0,0,0-7.93-19.62,50.76,50.76,0,0,0-9-10.32,50.94,50.94,0,0,0-8.78-6.16,45.4,45.4,0,0,0-18-5.53,50.08,50.08,0,0,0-14.05.7A62.29,62.29,0,0,0-117.95,298,71.85,71.85,0,0,0-134,307.1a78.11,78.11,0,0,1-10.91,7.21,18.36,18.36,0,0,1-15.32.84,41.51,41.51,0,0,1-14.44-8.74,79.4,79.4,0,0,1-7.85-8.34c-4.15-5.19-8.08-10.56-12-15.92-4.14-5.62-8.39-11.1-13.9-15.49a46.33,46.33,0,0,0-14.47-7.78A56,56,0,0,0-239.52,256.54Z" transform="translate(322.76 -250.24)"/>
</svg>
