<?xml version="1.0" standalone="no"?>
<!DOCTYPE svg PUBLIC "-//W3C//DTD SVG 20010904//EN"
 "http://www.w3.org/TR/2001/REC-SVG-20010904/DTD/svg10.dtd">
<svg version="1.0" xmlns="http://www.w3.org/2000/svg"
 width="1100.000000pt" height="597.000000pt" viewBox="0 0 1100.000000 597.000000"
 preserveAspectRatio="xMidYMid meet">
<metadata>
Created by potrace 1.15, written by Peter Selinger 2001-2017
</metadata>
<g transform="translate(0.000000,597.000000) scale(0.100000,-0.100000)"
fill="#fff" stroke="none">
<path d="M0 2985 l0 -2985 1553 1 c853 1 1527 5 1497 9 -30 5 -96 8 -146 9
-260 3 -632 70 -889 161 -316 113 -624 283 -885 490 -58 45 -173 151 -255 234
-322 323 -555 700 -702 1131 -154 456 -193 972 -109 1472 97 576 399 1150 832
1579 584 579 1379 890 2204 861 358 -13 561 -59 835 -192 295 -142 512 -324
764 -640 53 -66 183 -240 288 -385 333 -458 433 -580 643 -783 242 -234 449
-361 744 -455 69 -22 100 -26 211 -26 110 -1 142 3 204 22 150 47 319 146 573
335 407 303 792 478 1223 558 142 26 423 36 560 20 607 -71 1125 -395 1478
-924 190 -285 307 -608 354 -977 9 -71 9 -409 0 -480 -69 -534 -275 -960 -641
-1325 -343 -341 -756 -553 -1206 -620 -138 -21 -421 -23 -560 -6 -524 68 -947
272 -1434 692 -65 56 -260 241 -433 411 -282 275 -322 311 -386 343 -188 91
-412 55 -668 -110 -107 -69 -198 -152 -544 -500 -420 -421 -590 -558 -837
-674 -228 -108 -570 -187 -938 -219 -64 -5 1400 -9 3783 -10 l3887 -2 0 2985
0 2985 -5500 0 -5500 0 0 -2985z"/>
</g>
</svg>
