<svg id="Layer_1" data-name="Layer 1" xmlns="http://www.w3.org/2000/svg" viewBox="0 0 263.33 143.4">
  <defs>
    <style>
      .cls-1 {
        fill: #ffffff;
      }
    </style>
  </defs>
  <title>mask</title>
  <path class="cls-1" d="M-340.77,390.64c1.06-.16,2.12-0.36,3.18-0.47a38.6,38.6,0,0,0,5.63-.54c6.12-1.57,12.51-2.43,18-5.75a64.66,64.66,0,0,0,8.47-6c3.27-2.76,6.29-5.82,9.35-8.81,2.24-2.2,4.3-4.58,6.57-6.75,3.15-3,6.42-5.87,10.48-7.66a17.46,17.46,0,0,1,7.21-1.75,10.61,10.61,0,0,1,7.62,3.09c4.09,4.08,8.17,8.17,12.37,12.11A108.83,108.83,0,0,0-238,379.36a55.39,55.39,0,0,0,19,8.32,76.66,76.66,0,0,0,10.13,1.24,35.73,35.73,0,0,0,6.71,0,58.7,58.7,0,0,0,8.51-1.51A47.5,47.5,0,0,0-179,380.59a56.62,56.62,0,0,0,9.92-8.34A53,53,0,0,0-158,353.95a47.52,47.52,0,0,0,2.85-14.35,73.33,73.33,0,0,0-.39-10.42,48.5,48.5,0,0,0-3.75-13.67,49.77,49.77,0,0,0-6.06-10.63,63.75,63.75,0,0,0-9-9.49,44.88,44.88,0,0,0-10.81-6.82,43.62,43.62,0,0,0-10.77-3.31,49.59,49.59,0,0,0-10.26-.66,52.41,52.41,0,0,0-12.33,2.06,63.62,63.62,0,0,0-14.79,6.28,89.09,89.09,0,0,0-8,5.57c-4.41,3.21-8.73,6.6-14,8.32a16.76,16.76,0,0,1-10.18,0,38.79,38.79,0,0,1-14.12-7.52,77.34,77.34,0,0,1-8-8.2c-2.66-3-5.11-6.24-7.55-9.45-2.79-3.66-5.43-7.44-8.21-11.11-1.63-2.15-3.42-4.19-5.14-6.28a44.37,44.37,0,0,0-11-9.55,44.77,44.77,0,0,0-15.2-6,61.75,61.75,0,0,0-14.75-.91,73.17,73.17,0,0,0-13.9,2,73.16,73.16,0,0,0-16.73,6.39,62.09,62.09,0,0,0-12.34,8.45c-1.71,1.52-3.5,3-5.08,4.63A64.16,64.16,0,0,0-408,283.09a90.26,90.26,0,0,0-5,10.5,87.46,87.46,0,0,0-3.32,11.5,58.31,58.31,0,0,0-1.17,8.82,70.4,70.4,0,0,0-.09,8.77,70.14,70.14,0,0,0,2.46,15.26,71.22,71.22,0,0,0,9.41,20.49,70.37,70.37,0,0,0,11.06,12.89,71.44,71.44,0,0,0,13.89,9.89,71,71,0,0,0,18,6.92c1.86,0.43,3.78.6,5.62,1.1,3.48,0.95,7,.89,10.57,1a17.61,17.61,0,0,1,2.7.46h-74.21V247.24h263.33v143.4h-186Z" transform="translate(418.09 -247.24)"/>
</svg>
